# xmcd CD database file
#
# Track frame offsets:
#	150
#	15110
#	32397
#	64320
#	79133
#	97662
#	116589
#	138485
#	154059
#	175793
#	192377
#	211084
#
# Disc length: 3065 seconds
#
# Revision: 0
# Processed by: cddbd v1.5.2PL0 Copyright (c) Steve Scherf et al.
# Submitted via: CDex 1.50beta8
#
DISCID=8c0bf70c
DTITLE=CLEMENTINE - Cafe de Jazz
DYEAR=2010
DGENRE=Jazz
TTITLE0=girl talk
TTITLE1='s wonderful
TTITLE2=all blues
TTITLE3=be nice to me baby (but don't be that nice)
TTITLE4=lately (I've been thinking of you)
TTITLE5=makin' whoopee
TTITLE6=everything happens to me
TTITLE7=never let me go
TTITLE8=polka dots and moonbeams
TTITLE9=sunny
TTITLE10=try ti remember
TTITLE11='s wonderful (live edition)
EXTD=YEAR: 2010
EXTT0=
EXTT1=
EXTT2=
EXTT3=
EXTT4=
EXTT5=
EXTT6=
EXTT7=
EXTT8=
EXTT9=
EXTT10=
EXTT11=
PLAYORDER=
